<svg width="567" height="101" viewBox="0 0 567 101" fill="none" xmlns="http://www.w3.org/2000/svg">
<g id="botao">
<path id="fundo" d="M0.5 90.7212V13.9974L4.81139 8.91512L9.09172 3.86945H468.5V96.8694H6.64824C3.25266 96.8694 0.5 94.1168 0.5 90.7212Z" fill="url(#paint0_linear_56_336)" stroke="url(#paint1_linear_56_336)"/>
<g id="seta-grupo">
<circle id="circulo" cx="452.63" cy="50.3696" r="50.3696" fill="#EDEDED"/>
<g id="SETA">
<path id="Polygon 1" d="M479 51.4706L456.941 74.3948L456.941 28.5464L479 51.4706Z" fill="#1D6FAF"/>
<rect id="Rectangle 26" x="458.412" y="44.1176" width="14.7059" height="29.4118" transform="rotate(90 458.412 44.1176)" fill="#1D6FAF"/>
</g>
</g>
<path id="texto" d="M120.62 60.9296C118.772 60.9296 117.185 60.6123 115.86 59.9776C114.535 59.3243 113.443 58.475 112.584 57.4296C111.725 56.3656 111.091 55.2176 110.68 53.9856C110.269 52.7536 110.064 51.559 110.064 50.4016V49.7856C110.064 48.4976 110.269 47.2376 110.68 46.0056C111.109 44.755 111.753 43.6256 112.612 42.6176C113.489 41.6096 114.581 40.807 115.888 40.2096C117.195 39.6123 118.725 39.3136 120.48 39.3136C122.347 39.3136 123.999 39.6683 125.436 40.3776C126.892 41.0683 128.059 42.0483 128.936 43.3176C129.813 44.5683 130.327 46.0243 130.476 47.6856H125.268C125.137 46.9763 124.857 46.3603 124.428 45.8376C123.999 45.315 123.448 44.9136 122.776 44.6336C122.104 44.335 121.339 44.1856 120.48 44.1856C119.677 44.1856 118.949 44.3256 118.296 44.6056C117.661 44.8856 117.12 45.287 116.672 45.8096C116.243 46.3136 115.907 46.9296 115.664 47.6576C115.44 48.3856 115.328 49.207 115.328 50.1216C115.328 51.0363 115.44 51.8576 115.664 52.5856C115.907 53.3136 116.252 53.939 116.7 54.4616C117.167 54.9843 117.727 55.3856 118.38 55.6656C119.033 55.927 119.78 56.0576 120.62 56.0576C121.927 56.0576 123.028 55.7403 123.924 55.1056C124.839 54.471 125.389 53.6216 125.576 52.5576H130.784C130.616 54.0883 130.103 55.4883 129.244 56.7576C128.385 58.027 127.228 59.0443 125.772 59.8096C124.316 60.5563 122.599 60.9296 120.62 60.9296ZM143.545 60.9296C141.679 60.9296 140.055 60.6123 138.673 59.9776C137.292 59.3243 136.144 58.475 135.229 57.4296C134.315 56.3656 133.633 55.2176 133.185 53.9856C132.737 52.7536 132.513 51.559 132.513 50.4016V49.7856C132.513 48.4976 132.747 47.2376 133.213 46.0056C133.68 44.755 134.38 43.6256 135.313 42.6176C136.247 41.6096 137.395 40.807 138.757 40.2096C140.139 39.6123 141.735 39.3136 143.545 39.3136C145.337 39.3136 146.915 39.6123 148.277 40.2096C149.659 40.807 150.816 41.6096 151.749 42.6176C152.683 43.6256 153.383 44.755 153.849 46.0056C154.335 47.2376 154.577 48.4976 154.577 49.7856V50.4016C154.577 51.559 154.344 52.7536 153.877 53.9856C153.429 55.2176 152.748 56.3656 151.833 57.4296C150.919 58.475 149.771 59.3243 148.389 59.9776C147.008 60.6123 145.393 60.9296 143.545 60.9296ZM143.545 56.0576C144.441 56.0576 145.244 55.9083 145.953 55.6096C146.663 55.311 147.269 54.891 147.773 54.3496C148.277 53.8083 148.66 53.183 148.921 52.4736C149.183 51.7456 149.313 50.9616 149.313 50.1216C149.313 49.2256 149.173 48.4136 148.893 47.6856C148.632 46.9576 148.249 46.3323 147.745 45.8096C147.241 45.287 146.635 44.8856 145.925 44.6056C145.216 44.3256 144.423 44.1856 143.545 44.1856C142.649 44.1856 141.847 44.3256 141.137 44.6056C140.428 44.8856 139.821 45.287 139.317 45.8096C138.813 46.3323 138.431 46.9576 138.169 47.6856C137.908 48.4136 137.777 49.2256 137.777 50.1216C137.777 50.9616 137.908 51.7456 138.169 52.4736C138.431 53.183 138.813 53.8083 139.317 54.3496C139.821 54.891 140.428 55.311 141.137 55.6096C141.847 55.9083 142.649 56.0576 143.545 56.0576ZM157.72 60.3696V39.9296H166.26L173.064 56.2256H174.044L173.484 56.7296V39.9296H178.356V60.3696H169.76L162.956 44.0736H161.976L162.536 43.5696V60.3696H157.72ZM186.582 60.3696V43.9056H191.79V60.3696H186.582ZM180.982 44.4656V39.9296H197.39V44.4656H180.982ZM196.287 60.3696L202.839 39.9296H211.183L217.959 60.3696H212.583L207.319 43.5696L208.803 44.1296H205.107L206.619 43.5696L201.495 60.3696H196.287ZM201.635 55.6376L203.203 51.3816H210.959L212.526 55.6376H201.635ZM228.874 60.9296C227.026 60.9296 225.439 60.6123 224.114 59.9776C222.789 59.3243 221.697 58.475 220.838 57.4296C219.979 56.3656 219.345 55.2176 218.934 53.9856C218.523 52.7536 218.318 51.559 218.318 50.4016V49.7856C218.318 48.4976 218.523 47.2376 218.934 46.0056C219.363 44.755 220.007 43.6256 220.866 42.6176C221.743 41.6096 222.835 40.807 224.142 40.2096C225.449 39.6123 226.979 39.3136 228.734 39.3136C230.601 39.3136 232.253 39.6683 233.69 40.3776C235.146 41.0683 236.313 42.0483 237.19 43.3176C238.067 44.5683 238.581 46.0243 238.73 47.6856H233.522C233.391 46.9763 233.111 46.3603 232.682 45.8376C232.253 45.315 231.702 44.9136 231.03 44.6336C230.358 44.335 229.593 44.1856 228.734 44.1856C227.931 44.1856 227.203 44.3256 226.55 44.6056C225.915 44.8856 225.374 45.287 224.926 45.8096C224.497 46.3136 224.161 46.9296 223.918 47.6576C223.694 48.3856 223.582 49.207 223.582 50.1216C223.582 51.0363 223.694 51.8576 223.918 52.5856C224.161 53.3136 224.506 53.939 224.954 54.4616C225.421 54.9843 225.981 55.3856 226.634 55.6656C227.287 55.927 228.034 56.0576 228.874 56.0576C230.181 56.0576 231.282 55.7403 232.178 55.1056C233.093 54.471 233.643 53.6216 233.83 52.5576H239.038C238.87 54.0883 238.357 55.4883 237.498 56.7576C236.639 58.027 235.482 59.0443 234.026 59.8096C232.57 60.5563 230.853 60.9296 228.874 60.9296ZM245.644 60.3696V43.9056H250.852V60.3696H245.644ZM240.044 44.4656V39.9296H256.452V44.4656H240.044ZM264.799 60.3696V39.9296H273.339L280.143 56.2256H281.123L280.563 56.7296V39.9296H285.435V60.3696H276.839L270.035 44.0736H269.055L269.615 43.5696V60.3696H264.799ZM299.596 60.9296C297.729 60.9296 296.105 60.6123 294.724 59.9776C293.343 59.3243 292.195 58.475 291.28 57.4296C290.365 56.3656 289.684 55.2176 289.236 53.9856C288.788 52.7536 288.564 51.559 288.564 50.4016V49.7856C288.564 48.4976 288.797 47.2376 289.264 46.0056C289.731 44.755 290.431 43.6256 291.364 42.6176C292.297 41.6096 293.445 40.807 294.808 40.2096C296.189 39.6123 297.785 39.3136 299.596 39.3136C301.388 39.3136 302.965 39.6123 304.328 40.2096C305.709 40.807 306.867 41.6096 307.8 42.6176C308.733 43.6256 309.433 44.755 309.9 46.0056C310.385 47.2376 310.628 48.4976 310.628 49.7856V50.4016C310.628 51.559 310.395 52.7536 309.928 53.9856C309.48 55.2176 308.799 56.3656 307.884 57.4296C306.969 58.475 305.821 59.3243 304.44 59.9776C303.059 60.6123 301.444 60.9296 299.596 60.9296ZM299.596 56.0576C300.492 56.0576 301.295 55.9083 302.004 55.6096C302.713 55.311 303.32 54.891 303.824 54.3496C304.328 53.8083 304.711 53.183 304.972 52.4736C305.233 51.7456 305.364 50.9616 305.364 50.1216C305.364 49.2256 305.224 48.4136 304.944 47.6856C304.683 46.9576 304.3 46.3323 303.796 45.8096C303.292 45.287 302.685 44.8856 301.976 44.6056C301.267 44.3256 300.473 44.1856 299.596 44.1856C298.7 44.1856 297.897 44.3256 297.188 44.6056C296.479 44.8856 295.872 45.287 295.368 45.8096C294.864 46.3323 294.481 46.9576 294.22 47.6856C293.959 48.4136 293.828 49.2256 293.828 50.1216C293.828 50.9616 293.959 51.7456 294.22 52.4736C294.481 53.183 294.864 53.8083 295.368 54.3496C295.872 54.891 296.479 55.311 297.188 55.6096C297.897 55.9083 298.7 56.0576 299.596 56.0576ZM316.692 60.3696L311.82 39.9296H317.196L320.864 56.8696L319.996 56.2256H322.264L321.284 56.8696L324.056 40.6576H328.284L324.448 60.3696H316.692ZM328.844 60.3696L324.728 40.6576H329.18L332.428 56.8696L331.448 56.2256H333.576L332.848 56.8696L336.012 39.9296H341.052L336.768 60.3696H328.844Z" fill="white"/>
</g>
<defs>
<linearGradient id="paint0_linear_56_336" x1="5.03056e-07" y1="57.8695" x2="528.068" y2="50.3695" gradientUnits="userSpaceOnUse">
<stop stop-color="white" stop-opacity="0.5"/>
<stop offset="1" stop-color="#011C38" stop-opacity="0"/>
</linearGradient>
<linearGradient id="paint1_linear_56_336" x1="-85.5" y1="-5.5" x2="469" y2="50.3694" gradientUnits="userSpaceOnUse">
<stop stop-color="white"/>
<stop offset="1" stop-color="white" stop-opacity="0"/>
</linearGradient>
</defs>
</svg>
