<svg width="257" height="119" viewBox="0 0 257 119" fill="none" xmlns="http://www.w3.org/2000/svg">
<path d="M81.9847 114.643L50.146 79.4609L46.3254 75.3218L3.97984 30.1108H38.5249L64.951 60.9944L68.9308 65.4518L116.211 114.643H81.9847ZM0 114.643L43.6191 66.5662L61.7671 81.0528L33.9082 114.643H0ZM65.478 78.0281L48.1258 62.7455L76.3031 30.1108H110.211L65.478 78.0281Z" fill="#31A7FF"/>
<rect x="46.1641" y="18" width="121.339" height="14.5911" transform="rotate(48.4007 46.1641 18)" fill="#011C38"/>
<path d="M122.381 115V3.56445H187.014C195.929 3.56445 203.517 5.05026 209.779 8.02187C216.04 10.8874 220.816 15.0264 224.106 20.439C227.396 25.7454 229.041 32.007 229.041 39.2238C229.041 46.3345 227.184 52.7553 223.469 58.4863C219.755 64.1111 214.714 68.5685 208.346 71.8585C201.978 75.0424 194.867 76.6343 187.014 76.6343H148.171V115H122.381ZM204.207 115L166.319 64.6948L194.655 60.715L235.727 115H204.207ZM148.171 55.9392H183.83C187.014 55.9392 189.932 55.3024 192.586 54.0288C195.345 52.7553 197.521 51.0042 199.113 48.7754C200.811 46.4406 201.66 43.7343 201.66 40.6566C201.66 37.5788 200.811 34.9787 199.113 32.8561C197.521 30.7335 195.345 29.0885 192.586 27.9211C189.826 26.7537 186.802 26.1699 183.512 26.1699H148.171V55.9392Z" fill="#D9D9D9"/>
</svg>
