<svg width="257" height="165" viewBox="0 0 257 165" fill="none" xmlns="http://www.w3.org/2000/svg">
<rect width="257" height="165" rx="14" fill="#F2F2F6"/>
<path d="M0 10C0 4.47715 4.47715 0 10 0H247C252.523 0 257 4.47715 257 10V24H0V10Z" fill="#E5646E"/>
<rect y="47" width="257" height="24" fill="#E5646E"/>
<rect y="94" width="257" height="24" fill="#E5646E"/>
<path d="M0 141H257V155C257 160.523 252.523 165 247 165H10C4.47715 165 0 160.523 0 155V141Z" fill="#E5646E"/>
<path d="M0 10C0 4.47715 4.47715 0 10 0H133V95H0V10Z" fill="#5055A0"/>
<circle cx="19.2661" cy="81.5229" r="4.26606" fill="white"/>
<circle cx="115.266" cy="81.5229" r="4.26606" fill="white"/>
<circle cx="45.7156" cy="81.5229" r="4.26606" fill="white"/>
<circle cx="68.7523" cy="81.5229" r="4.26606" fill="white"/>
<circle cx="92.6422" cy="81.5229" r="4.26606" fill="white"/>
<circle cx="19.2661" cy="64.4587" r="4.26606" fill="white"/>
<circle cx="115.266" cy="64.4587" r="4.26606" fill="white"/>
<circle cx="45.7156" cy="64.4587" r="4.26606" fill="white"/>
<circle cx="68.7523" cy="64.4587" r="4.26606" fill="white"/>
<circle cx="92.6422" cy="64.4587" r="4.26606" fill="white"/>
<circle cx="19.2661" cy="47.3945" r="4.26606" fill="white"/>
<circle cx="115.266" cy="47.3945" r="4.26606" fill="white"/>
<circle cx="45.7156" cy="47.3945" r="4.26606" fill="white"/>
<circle cx="68.7523" cy="47.3945" r="4.26606" fill="white"/>
<circle cx="92.6422" cy="47.3945" r="4.26606" fill="white"/>
<circle cx="19.2661" cy="30.3303" r="4.26606" fill="white"/>
<circle cx="115.266" cy="30.3303" r="4.26606" fill="white"/>
<circle cx="45.7156" cy="30.3303" r="4.26606" fill="white"/>
<circle cx="68.7523" cy="30.3303" r="4.26606" fill="white"/>
<circle cx="92.6422" cy="30.3303" r="4.26606" fill="white"/>
<circle cx="19.2661" cy="13.2661" r="4.26606" fill="white"/>
<circle cx="115.266" cy="13.2661" r="4.26606" fill="white"/>
<circle cx="45.7156" cy="13.2661" r="4.26606" fill="white"/>
<circle cx="68.7523" cy="13.2661" r="4.26606" fill="white"/>
<circle cx="92.6422" cy="13.2661" r="4.26606" fill="white"/>
<circle cx="103.734" cy="72.9908" r="4.26606" fill="white"/>
<circle cx="80.6972" cy="72.9908" r="4.26606" fill="white"/>
<circle cx="57.6606" cy="72.9908" r="4.26606" fill="white"/>
<circle cx="32.9174" cy="72.9908" r="4.26606" fill="white"/>
<circle cx="103.734" cy="55.9266" r="4.26606" fill="white"/>
<circle cx="80.6972" cy="55.9266" r="4.26606" fill="white"/>
<circle cx="57.6606" cy="55.9266" r="4.26606" fill="white"/>
<circle cx="32.9174" cy="55.9266" r="4.26606" fill="white"/>
<circle cx="103.734" cy="38.8624" r="4.26606" fill="white"/>
<circle cx="80.6972" cy="38.8624" r="4.26606" fill="white"/>
<circle cx="57.6606" cy="38.8624" r="4.26606" fill="white"/>
<circle cx="32.9174" cy="38.8624" r="4.26606" fill="white"/>
<circle cx="103.734" cy="21.7982" r="4.26606" fill="white"/>
<circle cx="80.6972" cy="21.7982" r="4.26606" fill="white"/>
<circle cx="57.6606" cy="21.7982" r="4.26606" fill="white"/>
<circle cx="32.9174" cy="21.7982" r="4.26606" fill="white"/>
</svg>
