<svg width="236" height="115" viewBox="0 0 236 115" fill="none" xmlns="http://www.w3.org/2000/svg">
<path fill-rule="evenodd" clip-rule="evenodd" d="M37.4044 30.1108H3.97984L40.9156 69.546L0 114.643H33.9082L56.8988 86.9227L81.9847 114.643H112.454L72.8938 70.0844L57.1248 52.323L37.4044 30.1108ZM66.7448 41.1812L82.8947 59.3717L110.211 30.1108H76.3031L66.7448 41.1812Z" fill="#31A7FF"/>
<path d="M122.381 115V3.56445H187.014C195.929 3.56445 203.517 5.05026 209.779 8.02187C216.04 10.8874 220.816 15.0264 224.106 20.439C227.396 25.7454 229.041 32.007 229.041 39.2238C229.041 46.3345 227.184 52.7553 223.469 58.4863C219.755 64.1111 214.714 68.5685 208.346 71.8585C201.978 75.0424 194.867 76.6343 187.014 76.6343H148.171V115H122.381ZM204.207 115L166.319 64.6948L194.655 60.715L235.727 115H204.207ZM148.171 55.9392H183.83C187.014 55.9392 189.932 55.3024 192.586 54.0288C195.345 52.7553 197.521 51.0042 199.113 48.7754C200.811 46.4406 201.66 43.7343 201.66 40.6566C201.66 37.5788 200.811 34.9787 199.113 32.8561C197.521 30.7335 195.345 29.0885 192.586 27.9211C189.826 26.7537 186.802 26.1699 183.512 26.1699H148.171V55.9392Z" fill="#D9D9D9"/>
</svg>
