<svg width="503" height="101" viewBox="0 0 503 101" fill="none" xmlns="http://www.w3.org/2000/svg">
<path d="M0.5 90.3518V13.628L4.81139 8.54567L9.09172 3.5H468.5V96.5H6.64824C3.25266 96.5 0.5 93.7473 0.5 90.3518Z" fill="url(#paint0_linear_105_18)" stroke="url(#paint1_linear_105_18)"/>
<circle cx="452.63" cy="50.3696" r="50.3696" fill="#EDEDED"/>
<path d="M479 51.4706L456.941 74.3948L456.941 28.5464L479 51.4706Z" fill="#1D6FAF"/>
<rect x="458.412" y="44.1176" width="14.7059" height="29.4118" transform="rotate(90 458.412 44.1176)" fill="#1D6FAF"/>
<path d="M120.62 60.56C118.772 60.56 117.185 60.2427 115.86 59.608C114.535 58.9547 113.443 58.1053 112.584 57.06C111.725 55.996 111.091 54.848 110.68 53.616C110.269 52.384 110.064 51.1893 110.064 50.032V49.416C110.064 48.128 110.269 46.868 110.68 45.636C111.109 44.3853 111.753 43.256 112.612 42.248C113.489 41.24 114.581 40.4373 115.888 39.84C117.195 39.2427 118.725 38.944 120.48 38.944C122.347 38.944 123.999 39.2987 125.436 40.008C126.892 40.6987 128.059 41.6787 128.936 42.948C129.813 44.1987 130.327 45.6547 130.476 47.316H125.268C125.137 46.6067 124.857 45.9907 124.428 45.468C123.999 44.9453 123.448 44.544 122.776 44.264C122.104 43.9653 121.339 43.816 120.48 43.816C119.677 43.816 118.949 43.956 118.296 44.236C117.661 44.516 117.12 44.9173 116.672 45.44C116.243 45.944 115.907 46.56 115.664 47.288C115.44 48.016 115.328 48.8373 115.328 49.752C115.328 50.6667 115.44 51.488 115.664 52.216C115.907 52.944 116.252 53.5693 116.7 54.092C117.167 54.6147 117.727 55.016 118.38 55.296C119.033 55.5573 119.78 55.688 120.62 55.688C121.927 55.688 123.028 55.3707 123.924 54.736C124.839 54.1013 125.389 53.252 125.576 52.188H130.784C130.616 53.7187 130.103 55.1187 129.244 56.388C128.385 57.6573 127.228 58.6747 125.772 59.44C124.316 60.1867 122.599 60.56 120.62 60.56ZM143.545 60.56C141.679 60.56 140.055 60.2427 138.673 59.608C137.292 58.9547 136.144 58.1053 135.229 57.06C134.315 55.996 133.633 54.848 133.185 53.616C132.737 52.384 132.513 51.1893 132.513 50.032V49.416C132.513 48.128 132.747 46.868 133.213 45.636C133.68 44.3853 134.38 43.256 135.313 42.248C136.247 41.24 137.395 40.4373 138.757 39.84C140.139 39.2427 141.735 38.944 143.545 38.944C145.337 38.944 146.915 39.2427 148.277 39.84C149.659 40.4373 150.816 41.24 151.749 42.248C152.683 43.256 153.383 44.3853 153.849 45.636C154.335 46.868 154.577 48.128 154.577 49.416V50.032C154.577 51.1893 154.344 52.384 153.877 53.616C153.429 54.848 152.748 55.996 151.833 57.06C150.919 58.1053 149.771 58.9547 148.389 59.608C147.008 60.2427 145.393 60.56 143.545 60.56ZM143.545 55.688C144.441 55.688 145.244 55.5387 145.953 55.24C146.663 54.9413 147.269 54.5213 147.773 53.98C148.277 53.4387 148.66 52.8133 148.921 52.104C149.183 51.376 149.313 50.592 149.313 49.752C149.313 48.856 149.173 48.044 148.893 47.316C148.632 46.588 148.249 45.9627 147.745 45.44C147.241 44.9173 146.635 44.516 145.925 44.236C145.216 43.956 144.423 43.816 143.545 43.816C142.649 43.816 141.847 43.956 141.137 44.236C140.428 44.516 139.821 44.9173 139.317 45.44C138.813 45.9627 138.431 46.588 138.169 47.316C137.908 48.044 137.777 48.856 137.777 49.752C137.777 50.592 137.908 51.376 138.169 52.104C138.431 52.8133 138.813 53.4387 139.317 53.98C139.821 54.5213 140.428 54.9413 141.137 55.24C141.847 55.5387 142.649 55.688 143.545 55.688ZM157.72 60V39.56H166.26L173.064 55.856H174.044L173.484 56.36V39.56H178.356V60H169.76L162.956 43.704H161.976L162.536 43.2V60H157.72ZM186.582 60V43.536H191.79V60H186.582ZM180.982 44.096V39.56H197.39V44.096H180.982ZM196.287 60L202.839 39.56H211.183L217.959 60H212.583L207.319 43.2L208.803 43.76H205.107L206.619 43.2L201.495 60H196.287ZM201.635 55.268L203.203 51.012H210.959L212.526 55.268H201.635ZM228.874 60.56C227.026 60.56 225.439 60.2427 224.114 59.608C222.789 58.9547 221.697 58.1053 220.838 57.06C219.979 55.996 219.345 54.848 218.934 53.616C218.523 52.384 218.318 51.1893 218.318 50.032V49.416C218.318 48.128 218.523 46.868 218.934 45.636C219.363 44.3853 220.007 43.256 220.866 42.248C221.743 41.24 222.835 40.4373 224.142 39.84C225.449 39.2427 226.979 38.944 228.734 38.944C230.601 38.944 232.253 39.2987 233.69 40.008C235.146 40.6987 236.313 41.6787 237.19 42.948C238.067 44.1987 238.581 45.6547 238.73 47.316H233.522C233.391 46.6067 233.111 45.9907 232.682 45.468C232.253 44.9453 231.702 44.544 231.03 44.264C230.358 43.9653 229.593 43.816 228.734 43.816C227.931 43.816 227.203 43.956 226.55 44.236C225.915 44.516 225.374 44.9173 224.926 45.44C224.497 45.944 224.161 46.56 223.918 47.288C223.694 48.016 223.582 48.8373 223.582 49.752C223.582 50.6667 223.694 51.488 223.918 52.216C224.161 52.944 224.506 53.5693 224.954 54.092C225.421 54.6147 225.981 55.016 226.634 55.296C227.287 55.5573 228.034 55.688 228.874 55.688C230.181 55.688 231.282 55.3707 232.178 54.736C233.093 54.1013 233.643 53.252 233.83 52.188H239.038C238.87 53.7187 238.357 55.1187 237.498 56.388C236.639 57.6573 235.482 58.6747 234.026 59.44C232.57 60.1867 230.853 60.56 228.874 60.56ZM245.644 60V43.536H250.852V60H245.644ZM240.044 44.096V39.56H256.452V44.096H240.044ZM264.799 60V39.56H273.339L280.143 55.856H281.123L280.563 56.36V39.56H285.435V60H276.839L270.035 43.704H269.055L269.615 43.2V60H264.799ZM299.596 60.56C297.729 60.56 296.105 60.2427 294.724 59.608C293.343 58.9547 292.195 58.1053 291.28 57.06C290.365 55.996 289.684 54.848 289.236 53.616C288.788 52.384 288.564 51.1893 288.564 50.032V49.416C288.564 48.128 288.797 46.868 289.264 45.636C289.731 44.3853 290.431 43.256 291.364 42.248C292.297 41.24 293.445 40.4373 294.808 39.84C296.189 39.2427 297.785 38.944 299.596 38.944C301.388 38.944 302.965 39.2427 304.328 39.84C305.709 40.4373 306.867 41.24 307.8 42.248C308.733 43.256 309.433 44.3853 309.9 45.636C310.385 46.868 310.628 48.128 310.628 49.416V50.032C310.628 51.1893 310.395 52.384 309.928 53.616C309.48 54.848 308.799 55.996 307.884 57.06C306.969 58.1053 305.821 58.9547 304.44 59.608C303.059 60.2427 301.444 60.56 299.596 60.56ZM299.596 55.688C300.492 55.688 301.295 55.5387 302.004 55.24C302.713 54.9413 303.32 54.5213 303.824 53.98C304.328 53.4387 304.711 52.8133 304.972 52.104C305.233 51.376 305.364 50.592 305.364 49.752C305.364 48.856 305.224 48.044 304.944 47.316C304.683 46.588 304.3 45.9627 303.796 45.44C303.292 44.9173 302.685 44.516 301.976 44.236C301.267 43.956 300.473 43.816 299.596 43.816C298.7 43.816 297.897 43.956 297.188 44.236C296.479 44.516 295.872 44.9173 295.368 45.44C294.864 45.9627 294.481 46.588 294.22 47.316C293.959 48.044 293.828 48.856 293.828 49.752C293.828 50.592 293.959 51.376 294.22 52.104C294.481 52.8133 294.864 53.4387 295.368 53.98C295.872 54.5213 296.479 54.9413 297.188 55.24C297.897 55.5387 298.7 55.688 299.596 55.688ZM316.692 60L311.82 39.56H317.196L320.864 56.5L319.996 55.856H322.264L321.284 56.5L324.056 40.288H328.284L324.448 60H316.692ZM328.844 60L324.728 40.288H329.18L332.428 56.5L331.448 55.856H333.576L332.848 56.5L336.012 39.56H341.052L336.768 60H328.844Z" fill="white"/>
<defs>
<linearGradient id="paint0_linear_105_18" x1="5.03056e-07" y1="57.5" x2="528.068" y2="50" gradientUnits="userSpaceOnUse">
<stop stop-color="white" stop-opacity="0.5"/>
<stop offset="1" stop-color="#011C38" stop-opacity="0"/>
</linearGradient>
<linearGradient id="paint1_linear_105_18" x1="-85.5" y1="-5.86945" x2="469" y2="50" gradientUnits="userSpaceOnUse">
<stop stop-color="white"/>
<stop offset="1" stop-color="white" stop-opacity="0"/>
</linearGradient>
</defs>
</svg>
